<svg xmlns="http://www.w3.org/2000/svg" width="240" height="240" viewBox="0 0 240 240">
  <g transform="translate(0, 0)">
  <rect width="240" height="240" fill="#2e3440"/>
  <rect x="8" y="8" width="224" height="224" rx="8" fill="#3b4252"/>
  <rect x="16" y="16" width="208" height="36" rx="6" fill="#434c5e"/>
  <text x="28" y="40" font-family="system-ui, sans-serif" font-size="12" font-weight="600" fill="#eceff4">nord (dark)</text>
  <rect x="16" y="60" width="208" height="72" rx="6" fill="#4c566a"/>
  <text x="28" y="82" font-family="system-ui, sans-serif" font-size="11" fill="#eceff4">Surface Text</text>
  <text x="28" y="98" font-family="system-ui, sans-serif" font-size="10" fill="#d8dee9">Outline color</text>
  <rect x="28" y="108" width="72" height="18" rx="9" fill="#81a1c1"/>
  <text x="64" y="120" font-family="system-ui, sans-serif" font-size="9" text-anchor="middle" fill="#2e3440">Primary</text>
  <rect x="108" y="108" width="48" height="18" rx="4" fill="#b48ead"/>
  <rect x="16" y="140" width="100" height="52" rx="6" fill="#434c5e"/>
  <rect x="24" y="148" width="84" height="36" rx="4" fill="#2e3440"/>
  <text x="66" y="170" font-family="system-ui, sans-serif" font-size="9" text-anchor="middle" fill="#8fbcbb">Background</text>
  <rect x="124" y="140" width="100" height="52" rx="6" fill="#434c5e"/>
  <circle cx="148" cy="166" r="9" fill="#bf616a"/>
  <circle cx="172" cy="166" r="9" fill="#d08770"/>
  <circle cx="196" cy="166" r="9" fill="#88c0d0"/>
  <rect x="16" y="200" width="208" height="24" rx="4" fill="#81a1c1" opacity="0.15"/>
  <text x="120" y="216" font-family="system-ui, sans-serif" font-size="9" text-anchor="middle" fill="#eceff4">Surface Tint Overlay</text>
</g>
</svg>